<svg width="20" height="20" viewBox="0 0 20 20" fill="none" xmlns="http://www.w3.org/2000/svg">
<g clip-path="url(#clip0_903_691)">
<path d="M9.99936 18.3327C11.0939 18.334 12.1779 18.1191 13.1892 17.7002C14.2004 17.2813 15.1189 16.6668 15.8919 15.8919C16.6668 15.1189 17.2813 14.2004 17.7002 13.1892C18.1191 12.1779 18.334 11.0939 18.3327 9.99936C18.334 8.90481 18.1191 7.82078 17.7002 6.80956C17.2813 5.79834 16.6668 4.87984 15.8919 4.10686C15.1189 3.33192 14.2004 2.71736 13.1892 2.29849C12.1779 1.87961 11.0939 1.66467 9.99936 1.66602C8.90481 1.66467 7.82078 1.87961 6.80956 2.29849C5.79834 2.71736 4.87984 3.33192 4.10686 4.10686C3.33192 4.87984 2.71736 5.79834 2.29849 6.80956C1.87961 7.82078 1.66467 8.90481 1.66602 9.99936C1.66467 11.0939 1.87961 12.1779 2.29849 13.1892C2.71736 14.2004 3.33192 15.1189 4.10686 15.8919C4.87984 16.6668 5.79834 17.2813 6.80956 17.7002C7.82078 18.1191 8.90481 18.334 9.99936 18.3327Z" stroke="#328525" stroke-width="2" stroke-linejoin="round"/>
<path d="M6.66602 10L9.16602 12.5L14.166 7.5" stroke="#328525" stroke-width="2" stroke-linecap="round" stroke-linejoin="round"/>
</g>
<defs>
<clipPath id="clip0_903_691">
<rect width="20" height="20" fill="white"/>
</clipPath>
</defs>
</svg>
