<svg width="33" height="33" viewBox="0 0 33 33" fill="none" xmlns="http://www.w3.org/2000/svg">
<g clip-path="url(#clip0_903_740)">
<path d="M9.48738 9.48723C8.14713 10.8275 7.2344 12.5351 6.86463 14.3941C6.49485 16.253 6.68463 18.1799 7.40997 19.9311C8.13531 21.6822 9.36363 23.1789 10.9396 24.2319C12.5156 25.2849 14.3684 25.847 16.2638 25.847C18.1592 25.847 20.0121 25.2849 21.588 24.2319C23.164 23.1789 24.3923 21.6822 25.1177 19.9311C25.843 18.1799 26.0328 16.253 25.663 14.3941C25.2932 12.5351 24.3805 10.8275 23.0403 9.48723C22.1504 8.59734 21.0939 7.89143 19.9312 7.40982C18.7685 6.92822 17.5223 6.68034 16.2638 6.68034C15.0053 6.68034 13.7591 6.92822 12.5964 7.40982C11.4337 7.89143 10.3773 8.59733 9.48738 9.48723ZM21.685 21.6848C20.6128 22.757 19.2467 23.4872 17.7595 23.783C16.2723 24.0788 14.7308 23.927 13.3299 23.3467C11.929 22.7665 10.7316 21.7838 9.88922 20.523C9.0468 19.2623 8.59715 17.78 8.59715 16.2637C8.59715 14.7473 9.0468 13.2651 9.88922 12.0043C10.7316 10.7435 11.929 9.76087 13.3299 9.18059C14.7308 8.60032 16.2723 8.4485 17.7595 8.74432C19.2467 9.04014 20.6128 9.77032 21.685 10.8425C23.1227 12.2803 23.9305 14.2303 23.9305 16.2637C23.9305 18.297 23.1228 20.247 21.685 21.6848Z" fill="#AC1A1A"/>
<path d="M17.6182 13.5531L16.2629 14.9084L14.9077 13.5531C14.7279 13.3734 14.4842 13.2724 14.23 13.2724C13.9759 13.2724 13.7321 13.3734 13.5524 13.5531C13.3727 13.7328 13.2717 13.9766 13.2717 14.2307C13.2717 14.4849 13.3727 14.7287 13.5524 14.9084L14.9077 16.2637L13.5524 17.619C13.3727 17.7987 13.2717 18.0424 13.2717 18.2966C13.2717 18.5508 13.3727 18.7945 13.5524 18.9742C13.7321 19.154 13.9759 19.2549 14.23 19.2549C14.4842 19.2549 14.7279 19.154 14.9077 18.9742L16.2629 17.619L17.6182 18.9742C17.798 19.154 18.0417 19.2549 18.2959 19.2549C18.55 19.2549 18.7938 19.154 18.9735 18.9742C19.1532 18.7945 19.2542 18.5508 19.2542 18.2966C19.2542 18.0424 19.1532 17.7987 18.9735 17.619L17.6182 16.2637L18.9735 14.9084C19.1532 14.7287 19.2542 14.4849 19.2542 14.2307C19.2542 13.9766 19.1532 13.7328 18.9735 13.5531C18.7938 13.3734 18.55 13.2724 18.2959 13.2724C18.0417 13.2724 17.798 13.3734 17.6182 13.5531Z" fill="#AC1A1A"/>
</g>
<defs>
<clipPath id="clip0_903_740">
<rect width="23" height="23" fill="white" transform="translate(0 16.2637) rotate(-45)"/>
</clipPath>
</defs>
</svg>
